<svg width="351" height="70" viewBox="0 0 351 70" fill="none" xmlns="http://www.w3.org/2000/svg">
<path d="M264.707 2.09651V5.1248C263.25 3.90184 261.675 3.26124 260.101 3.26124C258.352 3.26124 256.894 3.90184 255.67 5.1248C254.445 6.34776 253.862 7.92014 253.862 9.72547C253.862 11.5308 254.445 13.0449 255.67 14.2679C256.894 15.4909 258.352 16.1315 260.101 16.1315C260.976 16.1315 261.792 15.9567 262.433 15.6656C262.783 15.4909 263.133 15.3161 263.541 15.0832C263.891 14.8503 264.299 14.5591 264.766 14.1514V17.2379C263.308 18.0533 261.734 18.4609 260.101 18.4609C257.652 18.4609 255.611 17.5874 253.862 15.8985C252.171 14.2097 251.297 12.1132 251.297 9.72547C251.297 7.57072 251.997 5.64893 253.454 3.90184C255.203 1.80533 257.477 0.75708 260.334 0.75708C261.792 0.873553 263.308 1.28121 264.707 2.09651Z" fill="#1C2933"/>
<path d="M272.521 7.86193H279.867V1.22299H282.432V18.228H279.867V10.2496H272.521V18.1697H269.955V1.22299H272.521V7.86193Z" fill="#1C2933"/>
<path d="M290.303 1.22299V11.4726C290.303 12.9285 290.537 13.9767 291.003 14.6756C291.703 15.6656 292.694 16.1315 294.035 16.1315C295.318 16.1315 296.367 15.6656 297.067 14.6756C297.533 14.035 297.767 12.9285 297.767 11.4726V1.22299H300.332V12.1714C300.332 13.9767 299.749 15.4326 298.641 16.5974C297.358 17.8786 295.842 18.5192 293.977 18.5192C292.111 18.5192 290.595 17.8786 289.371 16.5974C288.263 15.4326 287.68 13.9767 287.68 12.1714V1.22299H290.303Z" fill="#1C2933"/>
<path d="M311.352 10.9484L316.6 18.228H313.451L308.553 11.2396H308.087V18.228H305.521V1.22299H308.553C310.827 1.22299 312.46 1.63065 313.451 2.50419C314.559 3.43597 315.084 4.65893 315.084 6.23131C315.084 7.45427 314.734 8.44429 314.034 9.31783C313.334 10.1914 312.518 10.7155 311.352 10.9484ZM308.204 9.02665H309.02C311.469 9.02665 312.693 8.09487 312.693 6.23131C312.693 4.48422 311.527 3.61068 309.136 3.61068H308.204V9.02665V9.02665Z" fill="#1C2933"/>
<path d="M333.216 2.09651V5.1248C331.758 3.90184 330.184 3.26124 328.61 3.26124C326.861 3.26124 325.403 3.90184 324.179 5.1248C322.954 6.34776 322.371 7.92014 322.371 9.72547C322.371 11.5308 322.954 13.0449 324.179 14.2679C325.403 15.4909 326.861 16.1315 328.61 16.1315C329.484 16.1315 330.301 15.9567 330.942 15.6656C331.292 15.4909 331.642 15.3161 332.05 15.0832C332.4 14.8503 332.808 14.5591 333.274 14.1514V17.2379C331.817 18.0533 330.242 18.4609 328.61 18.4609C326.161 18.4609 324.12 17.5874 322.371 15.8985C320.68 14.2097 319.806 12.1132 319.806 9.72547C319.806 7.57072 320.505 5.64893 321.963 3.90184C323.712 1.80533 325.986 0.75708 328.843 0.75708C330.301 0.873553 331.758 1.28121 333.216 2.09651Z" fill="#1C2933"/>
<path d="M341.029 7.86193H348.376V1.22299H350.941V18.228H348.376V10.2496H341.029V18.1697H338.464V1.22299H341.029V7.86193Z" fill="#1C2933"/>
<path d="M296.601 45.3661L298.641 46.2978L307.795 25.1581L305.755 24.2263L296.601 45.3661Z" fill="#1C2933"/>
<path d="M262.025 54.1015L259.926 55.3245C259.518 54.6256 259.168 54.218 258.818 53.985C258.469 53.7521 258.002 53.6356 257.419 53.6356C256.719 53.6356 256.136 53.8103 255.67 54.218C255.204 54.6256 254.97 55.0915 254.97 55.7321C254.97 56.5474 255.612 57.2463 256.836 57.7121L258.527 58.411C259.926 58.9933 260.918 59.6339 261.559 60.4493C262.2 61.2646 262.492 62.2546 262.492 63.4193C262.492 64.9917 261.967 66.2729 260.917 67.3211C259.868 68.3694 258.585 68.8935 257.011 68.8935C255.553 68.8935 254.329 68.4276 253.338 67.5541C252.405 66.6805 251.822 65.4576 251.53 63.8852L254.154 63.3028C254.271 64.2928 254.504 64.9917 254.795 65.3993C255.32 66.1564 256.078 66.5058 257.128 66.5058C257.944 66.5058 258.585 66.2146 259.11 65.6905C259.635 65.1664 259.926 64.4676 259.926 63.6522C259.926 63.3028 259.868 63.0116 259.81 62.7205C259.693 62.4293 259.576 62.1963 259.402 61.9634C259.227 61.7305 258.935 61.4975 258.644 61.3228C258.352 61.1481 257.944 60.9151 257.536 60.7404L255.903 60.0416C253.571 59.0516 252.405 57.5957 252.405 55.7321C252.405 54.4509 252.871 53.4027 253.863 52.5291C254.854 51.6556 256.078 51.2479 257.536 51.2479C259.402 51.2479 260.917 52.2379 262.025 54.1015Z" fill="#1C2933"/>
<path d="M276.777 53.985H269.955V58.0616H276.602V60.4493H269.955V66.1564H276.777V68.5441H267.39V51.5974H276.777V53.985Z" fill="#1C2933"/>
<path d="M291.995 64.4675H284.706L282.782 68.6023H280.042L288.496 50.4908L296.659 68.6023H293.86L291.995 64.4675ZM290.945 62.0799L288.438 56.3145L285.814 62.0799H290.945Z" fill="#1C2933"/>
<path d="M304.297 53.985V68.6023H301.732V53.985H297.825V51.5974H308.204V53.985H304.297Z" fill="#1C2933"/>
<path d="M317.415 53.985V68.6023H314.85V53.985H310.943V51.5974H321.322V53.985H317.415Z" fill="#1C2933"/>
<path d="M328.436 51.5974V66.2147H333.45V68.6023H325.87V51.5974H328.436Z" fill="#1C2933"/>
<path d="M347.501 53.985H340.68V58.0616H347.326V60.4493H340.68V66.1564H347.501V68.5441H338.114V51.5974H347.501V53.985Z" fill="#1C2933"/>
<path d="M0 69.1847L10.9032 68.7188V0.815308L0 1.2812V69.1847Z" fill="#1C2933"/>
<path d="M75.3887 19.9168L85.359 11.1231C79.1786 4.07654 69.5582 0 58.655 0L32.5924 12.1131C28.6859 20.0333 26.5869 28.7105 26.5869 36.3977C26.5869 56.8968 40.4637 70 61.9784 70H68.2755L82.6186 56.1398L80.7529 53.2862C74.9223 56.7221 70.1995 58.9934 64.0191 58.9934C46.0027 58.9934 37.4901 48.4526 37.4901 27.7205C37.4901 23.1198 38.0731 18.2862 39.7057 11.0067C58.8299 6.11481 72.4152 16.1314 75.3887 19.9168Z" fill="#1C2933"/>
<path d="M222.086 1.2812V50.9567L185.761 0.815308L177.365 1.2812V69.1847L185.703 68.7188V18.9268L222.027 69.1847L230.423 68.7188V0.815308L222.086 1.2812Z" fill="#1C2933"/>
<path d="M126.29 0L100.227 12.1131C96.3207 20.0333 94.2217 28.7105 94.2217 36.3977C94.2217 56.8968 108.098 70 129.613 70L155.676 57.8869C159.582 49.9667 161.681 41.2895 161.681 33.6023C161.681 13.1032 147.805 0 126.29 0ZM148.563 58.9934C136.435 62.1381 127.106 60.9734 120.284 57.3045C110.256 51.3644 105.125 41.3478 105.125 27.7205C105.125 23.1198 105.941 17.7621 107.34 11.0067C138.184 3.02829 150.778 22.5374 150.778 42.2795C150.778 46.8802 150.137 51.8885 148.563 58.9934Z" fill="#1C2933"/>
</svg>
