<svg width="501" height="100" viewBox="0 0 501 100" fill="none" xmlns="http://www.w3.org/2000/svg">
<g clip-path="url(#clip0)">
<path d="M377.453 2.99302V7.31628C375.375 5.57035 373.13 4.65581 370.885 4.65581C368.391 4.65581 366.313 5.57035 364.567 7.31628C362.821 9.06221 361.989 11.307 361.989 13.8843C361.989 16.4616 362.821 18.6233 364.567 20.3692C366.313 22.1151 368.391 23.0296 370.885 23.0296C372.132 23.0296 373.296 22.7802 374.211 22.3645C374.71 22.1151 375.209 21.8657 375.791 21.5331C376.289 21.2006 376.871 20.7849 377.537 20.2029V24.6093C375.458 25.7733 373.213 26.3552 370.885 26.3552C367.394 26.3552 364.484 25.1081 361.989 22.6971C359.578 20.286 358.331 17.293 358.331 13.8843C358.331 10.8081 359.329 8.06453 361.407 5.57035C363.902 2.57732 367.144 1.08081 371.218 1.08081C373.296 1.24709 375.458 1.82907 377.453 2.99302Z" fill="#1C2933"/>
<path d="M388.594 11.2238H399.07V1.74594H402.728V26.0227H399.07V14.6326H388.594V25.9395H384.936V1.74594H388.594V11.2238Z" fill="#1C2933"/>
<path d="M413.952 1.74594V16.3785C413.952 18.457 414.284 19.9535 414.949 20.9512C415.947 22.3645 417.36 23.0297 419.273 23.0297C421.102 23.0297 422.598 22.3645 423.596 20.9512C424.261 20.0366 424.594 18.457 424.594 16.3785V1.74594H428.252V17.3762C428.252 19.9535 427.42 22.032 425.841 23.6948C424.012 25.5239 421.85 26.4384 419.19 26.4384C416.529 26.4384 414.367 25.5239 412.621 23.6948C411.042 22.032 410.21 19.9535 410.21 17.3762V1.74594H413.952Z" fill="#1C2933"/>
<path d="M443.965 15.6302L451.447 26.0227H446.958L439.974 16.0459H439.309V26.0227H435.651V1.74594H439.974C443.217 1.74594 445.544 2.32792 446.958 3.57501C448.538 4.90524 449.286 6.65117 449.286 8.89594C449.286 10.6419 448.787 12.0552 447.789 13.3023C446.792 14.5494 445.628 15.2977 443.965 15.6302ZM439.475 12.8866H440.639C444.131 12.8866 445.877 11.5564 445.877 8.89594C445.877 6.40176 444.214 5.15466 440.806 5.15466H439.475V12.8866V12.8866Z" fill="#1C2933"/>
<path d="M475.142 2.99302V7.31628C473.064 5.57035 470.819 4.65581 468.574 4.65581C466.08 4.65581 464.002 5.57035 462.256 7.31628C460.51 9.06221 459.678 11.307 459.678 13.8843C459.678 16.4616 460.51 18.6233 462.256 20.3692C464.002 22.1151 466.08 23.0296 468.574 23.0296C469.821 23.0296 470.985 22.7802 471.9 22.3645C472.399 22.1151 472.898 21.8657 473.479 21.5331C473.978 21.2006 474.56 20.7849 475.225 20.2029V24.6093C473.147 25.7733 470.902 26.3552 468.574 26.3552C465.082 26.3552 462.173 25.1081 459.678 22.6971C457.267 20.286 456.02 17.293 456.02 13.8843C456.02 10.8081 457.018 8.06453 459.096 5.57035C461.591 2.57732 464.833 1.08081 468.907 1.08081C470.985 1.24709 473.064 1.82907 475.142 2.99302Z" fill="#1C2933"/>
<path d="M486.283 11.2238H496.759V1.74594H500.417V26.0227H496.759V14.6326H486.283V25.9395H482.625V1.74594H486.283V11.2238Z" fill="#1C2933"/>
<path d="M422.931 64.7657L425.841 66.0959L438.894 35.9163L435.984 34.586L422.931 64.7657Z" fill="#1C2933"/>
<path d="M373.629 77.2367L370.636 78.9826C370.054 77.9849 369.555 77.4029 369.057 77.0704C368.558 76.7378 367.893 76.5715 367.061 76.5715C366.064 76.5715 365.232 76.8209 364.567 77.4029C363.902 77.9849 363.569 78.65 363.569 79.5646C363.569 80.7285 364.484 81.7262 366.23 82.3913L368.641 83.389C370.636 84.2204 372.05 85.1349 372.964 86.2989C373.879 87.4628 374.294 88.8762 374.294 90.539C374.294 92.7837 373.546 94.6128 372.05 96.1093C370.553 97.6058 368.724 98.3541 366.479 98.3541C364.401 98.3541 362.655 97.689 361.241 96.4419C359.911 95.1948 359.08 93.4489 358.664 91.2041L362.405 90.3727C362.572 91.7861 362.904 92.7837 363.32 93.3657C364.068 94.4465 365.149 94.9454 366.645 94.9454C367.809 94.9454 368.724 94.5297 369.472 93.7814C370.22 93.0332 370.636 92.0355 370.636 90.8715C370.636 90.3727 370.553 89.957 370.47 89.5413C370.304 89.1256 370.137 88.793 369.888 88.4605C369.639 88.1279 369.223 87.7954 368.807 87.546C368.391 87.2965 367.809 86.964 367.227 86.7146L364.9 85.7169C361.574 84.3035 359.911 82.225 359.911 79.5646C359.911 77.7355 360.576 76.239 361.99 74.9919C363.403 73.7448 365.149 73.1628 367.227 73.1628C369.888 73.1628 372.05 74.5762 373.629 77.2367Z" fill="#1C2933"/>
<path d="M394.664 77.0703H384.936V82.8901H394.414V86.2988H384.936V94.4465H394.664V97.8552H381.278V73.6616H394.664V77.0703Z" fill="#1C2933"/>
<path d="M416.363 92.0355H405.971L403.227 97.9384H399.319L411.375 72.082L423.014 97.9384H419.023L416.363 92.0355ZM414.866 88.6267L411.291 80.3959L407.55 88.6267H414.866Z" fill="#1C2933"/>
<path d="M433.905 77.0703V97.9384H430.247V77.0703H424.677V73.6616H439.476V77.0703H433.905Z" fill="#1C2933"/>
<path d="M452.612 77.0703V97.9384H448.954V77.0703H443.383V73.6616H458.182V77.0703H452.612Z" fill="#1C2933"/>
<path d="M468.325 73.6616V94.5296H475.475V97.9384H464.667V73.6616H468.325Z" fill="#1C2933"/>
<path d="M495.512 77.0703H485.784V82.8901H495.262V86.2988H485.784V94.4465H495.512V97.8552H482.126V73.6616H495.512V77.0703Z" fill="#1C2933"/>
<path d="M0 98.7698L15.5471 98.1046V1.16394L0 1.82906V98.7698Z" fill="#1C2933"/>
<path d="M107.499 28.4337L121.716 15.8797C112.903 5.81977 99.1855 0 83.6384 0L46.475 17.293C40.9046 28.6 37.9116 40.9878 37.9116 51.9622C37.9116 81.2273 57.6988 99.9337 88.3773 99.9337H97.3564L117.809 80.1465L115.148 76.0727C106.834 80.9779 100.1 84.2203 91.2872 84.2203C65.5971 84.2203 53.4587 69.1721 53.4587 39.5744C53.4587 33.0064 54.2901 26.1058 56.618 15.7134C83.8878 8.72965 103.259 23.0297 107.499 28.4337Z" fill="#1C2933"/>
<path d="M316.678 1.82906V72.7471L264.882 1.16394L252.91 1.82906V98.7698L264.799 98.1046V27.0203L316.595 98.7698L328.567 98.1046V1.16394L316.678 1.82906Z" fill="#1C2933"/>
<path d="M180.08 0L142.917 17.293C137.347 28.6 134.354 40.9878 134.354 51.9622C134.354 81.2273 154.141 99.9337 184.819 99.9337L221.983 82.6407C227.553 71.3337 230.546 58.9459 230.546 47.9715C230.546 18.7064 210.759 0 180.08 0ZM211.84 84.2203C194.547 88.7099 181.244 87.0471 171.517 81.8093C157.217 73.3291 149.901 59.0291 149.901 39.5744C149.901 33.0064 151.065 25.3576 153.06 15.7134C197.041 4.32326 214.999 32.175 214.999 60.3593C214.999 66.9273 214.084 74.0773 211.84 84.2203Z" fill="#1C2933"/>
</g>
<defs>
<clipPath id="clip0">
<rect width="500.5" height="99.9337" fill="white"/>
</clipPath>
</defs>
</svg>
