<?xml version="1.0" encoding="utf-8"?>
<!-- Generator: Adobe Illustrator 24.2.3, SVG Export Plug-In . SVG Version: 6.00 Build 0)  -->
<svg version="1.1" id="Layer_1" xmlns="http://www.w3.org/2000/svg" xmlns:xlink="http://www.w3.org/1999/xlink" x="0px" y="0px"
	 viewBox="0 0 350 70.4" style="enable-background:new 0 0 350 70.4;" xml:space="preserve" width="350" height="70.4" >
<style type="text/css">
	.st0{fill:#1C2933;}
</style>
<g>
	<path class="st0" d="M263.9,2.4v3c-1.5-1.2-3-1.9-4.6-1.9c-1.7,0-3.2,0.6-4.4,1.9c-1.2,1.2-1.8,2.8-1.8,4.6c0,1.8,0.6,3.3,1.8,4.5
		c1.2,1.2,2.7,1.9,4.4,1.9c0.9,0,1.7-0.2,2.3-0.5c0.3-0.2,0.7-0.3,1.1-0.6c0.3-0.2,0.8-0.5,1.2-0.9v3.1c-1.5,0.8-3,1.2-4.6,1.2
		c-2.4,0-4.5-0.9-6.2-2.6c-1.7-1.7-2.6-3.8-2.6-6.2c0-2.1,0.7-4.1,2.1-5.8c1.7-2.1,4-3.1,6.9-3.1C261,1.2,262.5,1.6,263.9,2.4z"/>
	<path class="st0" d="M271.7,8.1h7.3V1.5h2.6v17H279v-8h-7.3v7.9h-2.6V1.5h2.6V8.1z"/>
	<path class="st0" d="M289.4,1.5v10.2c0,1.5,0.2,2.5,0.7,3.2c0.7,1,1.7,1.5,3,1.5c1.3,0,2.3-0.5,3-1.5c0.5-0.6,0.7-1.7,0.7-3.2V1.5
		h2.6v10.9c0,1.8-0.6,3.3-1.7,4.4c-1.3,1.3-2.8,1.9-4.6,1.9c-1.9,0-3.4-0.6-4.6-1.9c-1.1-1.2-1.7-2.6-1.7-4.4V1.5H289.4z"/>
	<path class="st0" d="M310.4,11.2l5.2,7.3h-3.1l-4.9-7h-0.5v7h-2.6v-17h3c2.3,0,3.9,0.4,4.9,1.3c1.1,0.9,1.6,2.1,1.6,3.7
		c0,1.2-0.3,2.2-1,3.1C312.3,10.5,311.5,11,310.4,11.2z M307.2,9.3h0.8c2.4,0,3.7-0.9,3.7-2.8c0-1.7-1.2-2.6-3.5-2.6h-0.9V9.3z"/>
	<path class="st0" d="M332.1,2.4v3c-1.5-1.2-3-1.9-4.6-1.9c-1.7,0-3.2,0.6-4.4,1.9c-1.2,1.2-1.8,2.8-1.8,4.6c0,1.8,0.6,3.3,1.8,4.5
		c1.2,1.2,2.7,1.9,4.4,1.9c0.9,0,1.7-0.2,2.3-0.5c0.3-0.2,0.7-0.3,1.1-0.6c0.3-0.2,0.8-0.5,1.2-0.9v3.1c-1.5,0.8-3,1.2-4.6,1.2
		c-2.4,0-4.5-0.9-6.2-2.6c-1.7-1.7-2.6-3.8-2.6-6.2c0-2.1,0.7-4.1,2.1-5.8c1.7-2.1,4-3.1,6.9-3.1C329.2,1.2,330.7,1.6,332.1,2.4z"/>
	<path class="st0" d="M339.9,8.1h7.3V1.5h2.6v17h-2.6v-8h-7.3v7.9h-2.6V1.5h2.6V8.1z"/>
	<path class="st0" d="M295.7,45.5l2,0.9l9.1-21.1l-2-0.9L295.7,45.5z"/>
	<path class="st0" d="M261.2,54.3l-2.1,1.2c-0.4-0.7-0.8-1.1-1.1-1.3c-0.3-0.2-0.8-0.3-1.4-0.3c-0.7,0-1.3,0.2-1.7,0.6
		c-0.5,0.4-0.7,0.9-0.7,1.5c0,0.8,0.6,1.5,1.9,2l1.7,0.7c1.4,0.6,2.4,1.2,3,2c0.6,0.8,0.9,1.8,0.9,3c0,1.6-0.5,2.8-1.6,3.9
		c-1,1-2.3,1.6-3.9,1.6c-1.5,0-2.7-0.5-3.7-1.3c-0.9-0.9-1.5-2.1-1.8-3.7l2.6-0.6c0.1,1,0.3,1.7,0.6,2.1c0.5,0.8,1.3,1.1,2.3,1.1
		c0.8,0,1.5-0.3,2-0.8c0.5-0.5,0.8-1.2,0.8-2c0-0.3-0.1-0.6-0.1-0.9c-0.1-0.3-0.2-0.5-0.4-0.8c-0.2-0.2-0.5-0.5-0.8-0.6
		c-0.3-0.2-0.7-0.4-1.1-0.6l-1.6-0.7c-2.3-1-3.5-2.4-3.5-4.3c0-1.3,0.5-2.3,1.5-3.2c1-0.9,2.2-1.3,3.7-1.3
		C258.6,51.4,260.1,52.4,261.2,54.3z"/>
	<path class="st0" d="M275.9,54.1h-6.8v4.1h6.6v2.4h-6.6v5.7h6.8v2.4h-9.4V51.8h9.4V54.1z"/>
	<path class="st0" d="M291.1,64.6h-7.3l-1.9,4.1h-2.7l8.4-18.1l8.1,18.1h-2.8L291.1,64.6z M290,62.2l-2.5-5.8l-2.6,5.8H290z"/>
	<path class="st0" d="M303.3,54.1v14.6h-2.6V54.1h-3.9v-2.4h10.3v2.4H303.3z"/>
	<path class="st0" d="M316.4,54.1v14.6h-2.6V54.1H310v-2.4h10.3v2.4H316.4z"/>
	<path class="st0" d="M327.4,51.8v14.6h5v2.4h-7.6v-17H327.4z"/>
	<path class="st0" d="M346.4,54.1h-6.8v4.1h6.6v2.4h-6.6v5.7h6.8v2.4H337V51.8h9.4V54.1z"/>
	<path class="st0" d="M0.2,69.3l10.9-0.5V1.1L0.2,1.6V69.3z"/>
	<path class="st0" d="M75.3,20.2l9.9-8.8c-6.2-7-15.7-11.1-26.6-11.1l-26,12.1c-3.9,7.9-6,16.6-6,24.2c0,20.4,13.8,33.5,35.3,33.5
		h6.3l14.3-13.8l-1.9-2.8c-5.8,3.4-10.5,5.7-16.7,5.7c-17.9,0-26.4-10.5-26.4-31.2c0-4.6,0.6-9.4,2.2-16.7
		C58.8,6.4,72.3,16.4,75.3,20.2z"/>
	<path class="st0" d="M221.4,1.6v49.5l-36.2-50l-8.4,0.5v67.7l8.3-0.5V19.2l36.2,50.1l8.4-0.5V1.1L221.4,1.6z"/>
	<path class="st0" d="M126,0.3l-26,12.1c-3.9,7.9-6,16.6-6,24.2c0,20.4,13.8,33.5,35.3,33.5l26-12.1c3.9-7.9,6-16.6,6-24.2
		C161.3,13.4,147.4,0.3,126,0.3z M148.2,59.1c-12.1,3.1-21.4,2-28.2-1.7c-10-5.9-15.1-15.9-15.1-29.5c0-4.6,0.8-9.9,2.2-16.7
		c30.7-8,43.3,11.5,43.3,31.2C150.4,47,149.8,52,148.2,59.1z"/>
</g>
</svg>
